<?xml version="1.0" encoding="UTF-8"?>
<svg width="398px" height="135px" viewBox="0 0 398 135" version="1.1" xmlns="http://www.w3.org/2000/svg" xmlns:xlink="http://www.w3.org/1999/xlink">
    <!-- Generator: Sketch 47.1 (45422) - http://www.bohemiancoding.com/sketch -->
    <title>LMA logo</title>
    <desc>Created with Sketch.</desc>
    <defs></defs>
    <g id="Page-1" stroke="none" stroke-width="1" fill="none" fill-rule="evenodd">
        <path d="M0.959999084,134 L4.95999908,0.8 L13.7599991,0.8 L9.75999908,126.4 L88.7799988,126.4 L88.7799988,134 L0.959999084,134 Z M188.8,98.6 L240,0.8 L247.4,0.8 L257,134 L248.4,134 L240.6,15.8 L192.8,108 L184.8,108 L137,15.8 L129.2,134 L120.6,134 L130.2,0.8 L137.6,0.8 L188.8,98.6 Z M397.2,134 L388.4,134 L374.4,98 L308.2,98 L294.4,134 L285.6,134 L338.2,0.8 L344.6,0.8 L397.2,134 Z M311.2,90.6 L371.6,90.6 L341.4,12.2 L311.2,90.6 Z" id="LMA" fill="#000000"></path>
    </g>
</svg>